<?xml version="1.0" encoding="utf-8"?>
<svg width="413" height="78" viewBox="0 0 413 78" fill="none" xmlns="http://www.w3.org/2000/svg">
  <g>
    <path d="M0 21.7981C0 21.7981 0 0 0 0L21.5261 0L43.6614 21.7981L43.6614 0L66 0L66 22.6055L43.6614 21.7981L43.6614 44L21.5261 44L21.5261 21.7981C21.5261 21.7981 0 21.7981 0 21.7981Z" fill="#FFC348" transform="translate(0 17)" />
    <g transform="translate(97 0)">
      <path d="M20.629 56.105Q17.493 56.105 15.1165 54.7085Q12.74 53.312 11.3925 50.96Q10.045 48.608 10.045 45.717L10.045 28.665L0.735 28.665L0.735 21.805L27.538 21.805L27.538 28.665L18.277 28.665L18.277 46.452Q18.277 47.579 19.061 48.412Q19.845 49.245 21.021 49.245L23.716 49.245L23.716 56.105L20.629 56.105ZM32.977 66.052L32.977 56.252Q30.233 55.566 28.273 54.0225Q26.313 52.479 25.284 50.2495Q24.255 48.02 24.255 45.423L24.255 30.968L31.85 30.968L31.85 45.178Q31.85 46.501 32.487 47.628Q33.124 48.755 34.2265 49.4165Q35.329 50.078 36.701 50.078Q38.122 50.078 39.2245 49.4165Q40.327 48.755 40.964 47.628Q41.601 46.501 41.601 45.178L41.601 30.968L49.196 30.968L49.196 45.423Q49.196 48.02 48.1915 50.225Q47.187 52.43 45.2515 53.998Q43.316 55.566 40.572 56.203L40.572 66.052L32.977 66.052ZM68.159 56.693Q64.092 56.693 61.054 55.027Q58.016 53.361 56.35 50.274Q54.684 47.187 54.684 43.071L54.684 20.335L62.279 20.335L62.279 33.712L62.426 33.712Q63.161 32.683 64.2635 31.9235Q65.366 31.164 66.7135 30.772Q68.061 30.38 69.58 30.38Q73.157 30.38 75.852 31.997Q78.547 33.614 80.0905 36.456Q81.634 39.298 81.634 43.12Q81.634 46.06 80.703 48.559Q79.772 51.058 78.0325 52.8955Q76.293 54.733 73.8185 55.713Q71.344 56.693 68.159 56.693ZM68.159 50.127Q69.923 50.127 71.197 49.2695Q72.471 48.412 73.1815 46.9175Q73.892 45.423 73.892 43.561Q73.892 41.699 73.1815 40.229Q72.471 38.759 71.197 37.9015Q69.923 37.044 68.159 37.044Q66.395 37.044 65.0965 37.9015Q63.798 38.759 63.112 40.229Q62.426 41.699 62.426 43.561Q62.426 45.423 63.112 46.9175Q63.798 48.412 65.0965 49.2695Q66.395 50.127 68.159 50.127ZM98.588 56.693Q94.717 56.693 91.63 54.978Q88.543 53.263 86.7545 50.274Q84.966 47.285 84.966 43.561Q84.966 39.788 86.7545 36.8235Q88.543 33.859 91.63 32.1195Q94.717 30.38 98.588 30.38Q102.459 30.38 105.522 32.1195Q108.584 33.859 110.373 36.8235Q112.161 39.788 112.161 43.561Q112.161 47.285 110.373 50.274Q108.584 53.263 105.497 54.978Q102.41 56.693 98.588 56.693ZM98.588 50.078Q100.401 50.078 101.724 49.196Q103.047 48.314 103.782 46.844Q104.517 45.374 104.517 43.512Q104.517 41.699 103.782 40.229Q103.047 38.759 101.724 37.877Q100.401 36.995 98.588 36.995Q96.775 36.995 95.4275 37.877Q94.08 38.759 93.345 40.229Q92.61 41.699 92.61 43.512Q92.61 45.374 93.345 46.844Q94.08 48.314 95.4275 49.196Q96.775 50.078 98.588 50.078ZM116.375 56.105L116.375 31.948Q116.375 29.106 117.772 26.803Q119.168 24.5 121.545 23.1525Q123.921 21.805 126.861 21.805L139.65 21.805L139.65 28.665L127.89 28.665Q126.518 28.665 125.563 29.645Q124.607 30.625 124.607 32.046L124.607 36.995L137.984 36.995L137.984 43.806L124.607 43.806L124.607 56.105L116.375 56.105ZM153.076 56.693Q149.744 56.693 147.196 54.978Q144.648 53.263 143.227 50.3475Q141.806 47.432 141.806 43.757Q141.806 39.935 143.472 36.9215Q145.138 33.908 148.201 32.144Q151.263 30.38 155.428 30.38Q159.642 30.38 162.607 32.1195Q165.571 33.859 167.163 36.8725Q168.756 39.886 168.756 43.61L168.756 56.105L161.308 56.105L161.308 52.087L161.112 52.087Q160.426 53.41 159.348 54.4635Q158.27 55.517 156.727 56.105Q155.183 56.693 153.076 56.693ZM155.33 50.127Q157.045 50.127 158.344 49.2695Q159.642 48.412 160.328 46.893Q161.014 45.374 161.014 43.512Q161.014 41.699 160.328 40.229Q159.642 38.759 158.344 37.9015Q157.045 37.044 155.33 37.044Q153.566 37.044 152.243 37.9015Q150.92 38.759 150.234 40.229Q149.548 41.699 149.548 43.512Q149.548 45.374 150.234 46.893Q150.92 48.412 152.243 49.2695Q153.566 50.127 155.33 50.127ZM174.44 56.105L174.44 50.078L186.543 50.078Q187.033 50.078 187.425 49.8575Q187.817 49.637 188.062 49.245Q188.307 48.853 188.307 48.412Q188.307 47.922 188.062 47.53Q187.817 47.138 187.425 46.9175Q187.033 46.697 186.543 46.697L182.133 46.697Q179.683 46.697 177.699 45.8885Q175.714 45.08 174.563 43.3405Q173.411 41.601 173.411 38.808Q173.411 36.652 174.464 34.888Q175.518 33.124 177.355 32.046Q179.193 30.968 181.398 30.968L193.501 30.968L193.501 37.044L182.574 37.044Q181.888 37.044 181.423 37.485Q180.957 37.926 180.957 38.563Q180.957 39.249 181.423 39.7145Q181.888 40.18 182.574 40.18L186.886 40.18Q189.63 40.18 191.615 40.9885Q193.599 41.797 194.701 43.561Q195.804 45.325 195.804 48.118Q195.804 50.323 194.701 52.136Q193.599 53.949 191.762 55.027C190.536 55.7457 189.156 56.105 187.621 56.105L174.44 56.105ZM200.361 56.105L200.361 20.335L207.956 20.335L207.956 32.634Q209.426 31.458 211.19 30.919Q212.954 30.38 214.718 30.38Q218.148 30.38 220.525 31.85Q222.901 33.32 224.102 35.868Q225.302 38.416 225.302 41.65L225.302 56.105L217.707 56.105L217.707 41.944Q217.707 40.523 217.046 39.4205Q216.384 38.318 215.281 37.6565Q214.179 36.995 212.856 36.995Q211.533 36.995 210.406 37.632Q209.279 38.269 208.617 39.347Q207.956 40.425 207.956 41.797L207.956 56.105L200.361 56.105ZM230.986 56.105L230.986 30.968L238.63 30.968L238.63 56.105L230.986 56.105ZM234.808 28.126Q232.995 28.126 231.672 26.803Q230.349 25.48 230.349 23.667Q230.349 21.854 231.672 20.5065Q232.995 19.159 234.808 19.159Q236.621 19.159 237.944 20.5065Q239.267 21.854 239.267 23.667Q239.267 25.48 237.944 26.803Q236.621 28.126 234.808 28.126ZM256.662 56.693Q252.791 56.693 249.704 54.978Q246.617 53.263 244.828 50.274Q243.04 47.285 243.04 43.561Q243.04 39.788 244.828 36.8235Q246.617 33.859 249.704 32.1195Q252.791 30.38 256.662 30.38Q260.533 30.38 263.595 32.1195Q266.658 33.859 268.447 36.8235Q270.235 39.788 270.235 43.561Q270.235 47.285 268.447 50.274Q266.658 53.263 263.571 54.978Q260.484 56.693 256.662 56.693ZM256.662 50.078Q258.475 50.078 259.798 49.196Q261.121 48.314 261.856 46.844Q262.591 45.374 262.591 43.512Q262.591 41.699 261.856 40.229Q261.121 38.759 259.798 37.877Q258.475 36.995 256.662 36.995Q254.849 36.995 253.501 37.877Q252.154 38.759 251.419 40.229Q250.684 41.699 250.684 43.512Q250.684 45.374 251.419 46.844Q252.154 48.314 253.501 49.196Q254.849 50.078 256.662 50.078ZM274.743 56.105L274.743 41.65Q274.743 38.514 276.262 35.966Q277.781 33.418 280.599 31.899Q283.416 30.38 287.287 30.38Q291.207 30.38 293.975 31.899Q296.744 33.418 298.214 35.966Q299.684 38.514 299.684 41.65L299.684 56.105L292.089 56.105L292.089 41.846Q292.089 40.523 291.452 39.4205Q290.815 38.318 289.712 37.6565Q288.61 36.995 287.238 36.995Q285.817 36.995 284.715 37.6565Q283.612 38.318 282.975 39.4205Q282.338 40.523 282.338 41.846L282.338 56.105L274.743 56.105Z" fill="#000000" />
      <path d="M6.566 56.693Q4.606 56.693 3.2095 55.2965Q1.813 53.9 1.813 51.989Q1.813 50.029 3.2095 48.6325Q4.606 47.236 6.566 47.236Q8.477 47.236 9.8735 48.6325Q11.27 50.029 11.27 51.989Q11.27 53.263 10.633 54.341Q9.996 55.419 8.9425 56.056Q7.889 56.693 6.566 56.693Z" transform="translate(302.526 0)" fill="#FFC348" />
    </g>
  </g>
</svg>