<?xml version="1.0" encoding="utf-8"?>
<svg width="1137" height="1277" viewBox="0 0 1137 1277" fill="none" xmlns="http://www.w3.org/2000/svg">
  <g>
    <rect width="1137" height="1277" fill="#F8F8F8" fill-rule="evenodd" />
    <g transform="translate(158 228)">
      <path d="M0.00170898 444.17C0 441.963 0 439.687 0 437.34C0 437.34 0 109.34 0 109.34C0 71.0697 0 51.9203 7.44799 37.3032C13.9991 24.4452 24.4452 13.9991 37.3032 7.44798C51.9203 0 71.0697 0 109.34 0C109.34 0 505.673 0 505.673 0C543.944 0 563.07 0 577.687 7.44798C590.544 13.9991 601.009 24.4452 607.559 37.3032C615 51.906 615 71.0322 615 109.228C615 109.228 615 437.439 615 437.439C615 454.01 615 466.987 614.392 477.561M0.00170135 444.17C0.0279999 477.937 0.456795 495.615 7.44798 509.336C13.9991 522.193 24.4452 532.675 37.3032 539.225C51.906 546.667 71.0322 546.667 109.228 546.667C109.228 546.667 505.79 546.667 505.79 546.667C543.985 546.667 563.084 546.667 577.687 539.225C590.544 532.675 601.009 522.193 607.558 509.336C611.771 501.068 613.599 491.361 614.392 477.561M0.00170135 444.17L162.906 254.115C162.906 254.115 162.954 254.063 162.954 254.063C177.403 237.206 184.639 228.763 193.222 225.719C200.761 223.047 208.993 223.108 216.495 225.886C225.044 229.053 232.165 237.592 246.407 254.682C246.407 254.682 337.673 364.2 337.673 364.2C350.857 380.022 357.486 387.976 365.535 391.171C372.639 393.986 380.47 394.304 387.795 392.141C396.135 389.681 403.478 382.339 418.159 367.657C418.159 367.657 435.14 350.676 435.14 350.676C450.088 335.729 457.563 328.26 466.023 325.817C473.451 323.674 481.395 324.136 488.542 327.084C496.681 330.446 503.282 338.674 516.487 355.18C516.487 355.18 614.392 477.561 614.392 477.561M614.392 477.561L615 478.32M410 205C391.13 205 375.833 189.703 375.833 170.833C375.833 151.964 391.13 136.667 410 136.667C428.87 136.667 444.167 151.964 444.167 170.833C444.167 189.703 428.87 205 410 205Z" fill="none" stroke-width="67" stroke="#E2E2E2" stroke-linecap="round" stroke-linejoin="round" transform="translate(102.5 136.667)" />
    </g>
  </g>
</svg>